<?xml version="1.0" encoding="UTF-8"?>
<svg width="20px" height="20px" viewBox="0 0 20 20" version="1.1" xmlns="http://www.w3.org/2000/svg" xmlns:xlink="http://www.w3.org/1999/xlink">
    <!-- Generator: Sketch 62 (91390) - https://sketch.com -->
    <title>Black close</title>
    <desc>Created with Sketch.</desc>
    <g id="Page-1" stroke="none" stroke-width="1" fill="none" fill-rule="evenodd">
        <g id="Sign-in" transform="translate(-1400.000000, -51.000000)" fill="#000000" fill-rule="nonzero">
            <g transform="translate(0.000000, 31.000000)" id="Sign-in/up-flow">
                <g>
                    <g id="Black-close" transform="translate(1400.000000, 20.000000)">
                        <path d="M11.7616667,9.99416667 L19.6216667,2.13416667 C20.11,1.64625 20.11,0.854583333 19.6216667,0.366666667 C19.1333333,-0.121666667 18.3425,-0.121666667 17.8541667,0.366666667 L9.99416667,8.22666667 L2.13375,0.366666667 C1.64541667,-0.121666667 0.854583333,-0.121666667 0.36625,0.366666667 C-0.122083333,0.854583333 -0.122083333,1.64625 0.36625,2.13416667 L8.22666667,9.99416667 L0.36625,17.8541667 C-0.122083333,18.3420833 -0.122083333,19.13375 0.36625,19.6216667 C0.610416667,19.8654167 0.930416667,19.9875 1.25,19.9875 C1.56958333,19.9875 1.88958333,19.8654167 2.13375,19.62125 L9.99416667,11.76125 L17.8541667,19.62125 C18.0983333,19.8654167 18.4183333,19.9875 18.7379167,19.9875 C19.0575,19.9875 19.3775,19.8654167 19.6216667,19.62125 C20.11,19.1333333 20.11,18.3416667 19.6216667,17.85375 L11.7616667,9.99416667 Z" id="Path"></path>
                    </g>
                </g>
            </g>
        </g>
    </g>
</svg>