<?xml version="1.0" encoding="UTF-8"?>
<svg width="66px" height="36px" viewBox="0 0 66 36" version="1.1" xmlns="http://www.w3.org/2000/svg" xmlns:xlink="http://www.w3.org/1999/xlink">
    <!-- Generator: Sketch 62 (91390) - https://sketch.com -->
    <title>FP logo</title>
    <desc>Created with Sketch.</desc>
    <defs>
        <polygon id="path-1" points="0.0119657578 0.0291616725 66.1489027 0.0291616725 66.1489027 35.1830551 0.0119657578 35.1830551"></polygon>
    </defs>
    <g id="Symbols" stroke="none" stroke-width="1" fill="none" fill-rule="evenodd">
        <g id="Header" transform="translate(-687.000000, -17.000000)">
            <g id="FP-logo">
                <g>
                    <g transform="translate(686.000000, 16.000000)">
                        <g id="fp-new-logo" transform="translate(0.894737, 0.902439)">
                            <g id="Group-5">
                                <mask id="mask-2" fill="white">
                                    <use xlink:href="#path-1"></use>
                                </mask>
                                <g id="Clip-2"></g>
                                <path d="M3.67588079,25.7270308 C3.58015472,25.3310354 3.90323018,24.9597771 4.30468136,25.0074414 C6.10712334,25.2216289 9.24414616,26.0626917 11.6422834,29.1916386 C11.7721119,29.3565529 12.8679759,30.957227 14.8700466,33.7611721 C15.1259144,34.1193579 14.9103313,34.6239554 14.4763732,34.6830832 C11.3309743,35.1120615 8.91787984,34.9990348 7.15273114,35.1900941 C6.83204883,35.224887 6.52452885,35.0792797 6.44834686,34.7633281 C6.00022923,32.907439 4.18981008,27.8554307 3.67588079,25.7270308" id="Fill-1" fill="#337AB7" mask="url(#mask-2)"></path>
                                <path d="M62.4666401,25.7270308 C62.5621668,25.3310354 62.2390913,24.9597771 61.8376401,25.0074414 C60.0351982,25.2216289 56.8983748,26.0626917 54.500038,29.1916386 C54.370409,29.3565529 53.2743456,30.957227 51.2724743,33.7611721 C51.0164071,34.1193579 51.2319902,34.6239554 51.6661477,34.6830832 C54.8113472,35.1120615 57.2246411,34.9990348 58.9895904,35.1900941 C59.3102727,35.224887 59.6177926,35.0792797 59.6939746,34.7633281 C60.1422917,32.907439 61.9525114,27.8554307 62.4666401,25.7270308" id="Fill-3" fill="#337AB7" mask="url(#mask-2)"></path>
                                <path d="M64.2084556,14.6011489 L62.9019943,19.7140951 C62.8918234,19.7130895 62.7679778,19.7058493 62.548805,19.7058493 C61.0064188,19.7058493 54.7565041,20.0738898 50.4095438,25.7463378 C50.372051,25.7931976 49.3248478,27.2802418 47.063519,30.2722294 C45.592728,32.218218 43.3058722,33.0248902 41.6061363,33.1451569 C40.071129,33.253759 38.1450409,33.225804 38.1450409,33.225804 L38.1450409,32.255022 L38.1661804,31.0469243 L38.5704236,31.0469243 C40.5695029,31.0469243 42.193655,30.4671098 43.3972108,29.3237711 C44.6161227,28.1647455 45.2343535,26.5520045 45.2343535,24.5301955 C45.2343535,22.4929008 44.6085444,20.8654783 43.3744759,19.6921735 C42.1561623,18.5337512 40.5246313,17.9462944 38.5257514,17.9462944 L34.0022961,17.9462944 L34.0022961,2.49925589 C34.249389,2.5959922 34.5184192,2.72370021 34.7463668,2.85925171 L45.6463744,9.18592683 C45.4024724,9.75950676 45.1065193,10.8061091 45.4806487,11.9888663 C45.9532961,13.4845585 47.3056262,14.6815948 49.5011433,15.5473948 C51.9367733,16.50792 53.9681601,16.6106898 55.5428538,15.8516818 C56.7364382,15.2762918 57.3195694,14.3702689 57.5692549,13.8554145 L64.2022733,14.3067165 C64.2293957,14.3083254 64.2535266,14.3103366 64.2756633,14.3125489 C64.2617032,14.3847491 64.2403643,14.4788709 64.2084556,14.6011489 Z M32.1466065,17.9462944 L25.32074,17.9462944 C24.7011132,17.9462944 24.2418275,18.1057785 23.9169572,18.4333948 C23.5962749,18.7569889 23.4335406,19.2255868 23.4335406,19.8267194 L23.4305491,33.229223 C22.5249407,33.0641076 20.7703618,32.632716 19.0851842,30.2722294 C16.9056214,27.2191029 15.7768516,25.7931976 15.7393589,25.7463378 C11.392598,20.0738898 5.14268326,19.7058493 3.60009765,19.7058493 C3.38112429,19.7058493 3.25727869,19.7130895 3.24690837,19.7140951 L1.94044705,14.6011489 C1.90853836,14.4788709 1.88719943,14.3847491 1.87323938,14.3125489 C1.89537603,14.3103366 1.9197064,14.3083254 1.94662936,14.3067165 L8.57964775,13.8554145 C8.82933323,14.3702689 9.41226506,15.2762918 10.6060488,15.8516818 C12.1807425,16.6106898 14.2121294,16.50792 16.6477594,15.5473948 C18.8432765,14.6815948 20.1956065,13.4845585 20.6684534,11.9888663 C21.0423833,10.8061091 20.7464302,9.75950676 20.5025282,9.18592683 L31.4025358,2.85925171 C31.6304835,2.72370021 31.8995136,2.5959922 32.1466065,2.49925589 L32.1466065,17.9462944 Z M65.8627216,13.1547299 C65.4082223,12.5188043 64.5911604,12.4665144 64.322928,12.4492185 L57.435039,11.9816262 C56.9474344,11.9231017 56.306668,11.9739838 55.9776097,12.8763868 C55.9558719,12.9387324 55.6688932,13.7439968 54.7108348,14.1894665 C53.6335178,14.6892372 52.0654052,14.5601214 50.1734195,13.8139848 C48.5448798,13.1718247 47.530383,12.3452421 47.2388174,11.4235321 C46.9554283,10.5255537 47.4318649,9.73396516 47.4368507,9.72632279 C47.6727755,9.34460655 47.7328037,8.94137101 47.6179325,8.57232502 C47.5375625,8.31610453 47.3407257,7.96857784 46.856312,7.74091568 L36.1361896,1.51841812 L33.8148326,0.219818676 C33.3533532,-0.0337873171 32.7961477,-0.034390662 32.3340701,0.217807526 L29.2130016,1.98239038 L19.2925907,7.74091568 C18.8081769,7.96857784 18.6113402,8.31610453 18.5309702,8.57232502 C18.4160989,8.94137101 18.4761271,9.34460655 18.7122514,9.72632279 C18.7170377,9.73396516 19.1934743,10.5255537 18.9100853,11.4235321 C18.6185197,12.3452421 17.6040228,13.1718247 15.9754832,13.8139848 C14.0836969,14.5601214 12.5155843,14.6892372 11.4380679,14.1894665 C10.4800095,13.7439968 10.1930308,12.9387324 10.171293,12.8763868 C9.84243405,11.9739838 9.20146829,11.9231017 8.71386367,11.9816262 L1.82597464,12.4492185 C1.55774223,12.4665144 0.740879835,12.5188043 0.28618104,13.1547299 C-0.141395371,13.753047 -0.005384591,14.4601672 0.154557705,15.0709534 L1.49512143,20.3170378 C1.62774192,20.9205838 2.0599052,21.6214695 3.35180818,21.5721964 C3.41801871,21.5717941 9.90226284,21.1731843 14.2887102,26.8965144 C14.3000777,26.9111958 15.4396167,28.3515813 17.5874702,31.3600603 C19.7594547,34.4025278 22.2949987,34.7452277 22.9902093,34.9016952 C23.5653633,35.0312132 25.2916233,34.9867668 25.2916233,34.9867668 L25.2916233,19.8124403 L34.4175079,19.8124403 L38.9439547,19.8283284 L38.9431569,19.8283284 C39.692014,19.8281272 40.3547175,19.9783601 40.924487,20.2444353 C41.4944559,20.5101082 41.9702942,20.8910199 42.3490105,21.3461431 C43.1066424,22.2567918 43.4779797,23.4572471 43.4783786,24.6544846 C43.4781791,25.554273 43.2681801,26.4552682 42.8435951,27.2355943 C42.4196084,28.0155182 41.7776455,28.6749742 40.9224927,29.075193 C40.3529226,29.3420726 39.6908174,29.4927077 38.9431569,29.4927077 L36.3053056,29.4927077 L36.3053056,34.9867668 L37.8319369,34.9867668 L40.9851135,34.974901 C43.5850732,34.974901 46.5320399,34.2028206 48.5614325,31.3600603 C50.709286,28.3515813 51.8490244,26.9111958 51.8601925,26.8965144 C56.2466398,21.1731843 62.730884,21.5717941 62.7970945,21.5721964 C64.0891969,21.6214695 64.5213602,20.9205838 64.6537812,20.3170378 L65.994345,15.0709534 C66.1542873,14.4601672 66.2904975,13.753047 65.8627216,13.1547299 L65.8627216,13.1547299 Z" id="Fill-4" fill="#337AB7" mask="url(#mask-2)"></path>
                            </g>
                            <path d="M39.9459549,25.7607886 C40.152545,25.5129422 40.2637408,25.1665591 40.2631579,24.8169791 C40.2633507,24.5552173 40.2013151,24.2940196 40.0827062,24.0760728 C39.9637072,23.8575618 39.7916463,23.6832419 39.5645727,23.5766191 C39.412605,23.5055372 39.2341065,23.4636027 39.0210787,23.4634146 L36.6842105,23.4634146 L36.6842105,26.1707317 L39.0210787,26.1707317 C39.2341065,26.1705437 39.412605,26.1284211 39.5645727,26.0573392 C39.7163452,25.9862573 39.8425622,25.8850878 39.9459549,25.7607886" id="Fill-6" fill="#337AB7"></path>
                            <polyline id="Fill-7" fill="#337AB7" points="28.6315789 26.3152858 32.0292853 26.3152858 32.0292853 29.5928875 28.6315789 29.5928875 28.6315789 35.195122 33.1052632 35.195122 33.1052632 23.4634146 28.6315789 23.4634146 28.6315789 26.3152858"></polyline>
                        </g>
                    </g>
                </g>
            </g>
        </g>
    </g>
</svg>