<?xml version="1.0" encoding="UTF-8"?>
<svg width="134px" height="42px" viewBox="0 0 134 42" version="1.1" xmlns="http://www.w3.org/2000/svg" xmlns:xlink="http://www.w3.org/1999/xlink">
    <!-- Generator: Sketch 62 (91390) - https://sketch.com -->
    <title>Logo white</title>
    <desc>Created with Sketch.</desc>
    <defs>
        <rect id="path-1" x="0" y="0" width="134" height="42"></rect>
    </defs>
    <g id="Page-1" stroke="none" stroke-width="1" fill="none" fill-rule="evenodd">
        <g id="Sign-in" transform="translate(-1098.000000, -219.000000)">
            <g transform="translate(0.000000, 31.000000)" id="Sign-in/up-flow">
                <g>
                    <g id="Sign-up-on-blue" transform="translate(890.000000, 0.000000)">
                        <g id="Sign-up" transform="translate(0.000000, 188.000000)">
                            <g id="Logo-white" transform="translate(208.000000, 0.000000)">
                                <g id="THE-FINAL-LOGO">
                                    <mask id="mask-2" fill="white">
                                        <use xlink:href="#path-1"></use>
                                    </mask>
                                    <g id="Background"></g>
                                    <g id="Logo" mask="url(#mask-2)">
                                        <g transform="translate(0.000000, -0.569112)">
                                            <g id="Logo" transform="translate(0.000000, 28.963478)">
                                                <g id="Fresh_Prints" fill="#FFFFFF" fill-rule="nonzero">
                                                    <path d="M8.82069565,0.294416994 L0.575617391,0.294416994 C0.249356522,0.294416994 0.139826087,0.36579081 0.109530435,0.397016855 C0.0792347826,0.4282429 0,0.539764489 0,0.825259755 L0,12.6153221 C0,12.8985869 0.0675826087,13.0034172 0.1072,13.043565 C0.146817391,13.0837128 0.249356522,13.1461649 0.573286957,13.1461649 L2.79652174,13.1461649 C3.1157913,13.1461649 3.21833043,13.0770215 3.24862609,13.0480259 C3.33541909,12.9200258 3.37176862,12.7666348 3.35116522,12.6153221 L3.35116522,8.54924498 L7.7789913,8.54924498 C8.10292174,8.54924498 8.21245217,8.47787116 8.24507826,8.44664512 C8.27770435,8.41541907 8.3546087,8.31058878 8.3546087,8.00055876 L8.3546087,6.30543062 C8.3546087,6.02216578 8.28702609,5.91510506 8.24507826,5.87718772 C8.20313043,5.83927038 8.10292174,5.77458785 7.7789913,5.77458785 L3.35116522,5.77458785 L3.35116522,3.06907412 L8.82069565,3.06907412 C9.14462609,3.06907412 9.25415652,2.9977003 9.28678261,2.96647426 C9.3194087,2.93524821 9.39398261,2.83041792 9.39398261,2.5203879 L9.39398261,0.825259755 C9.39398261,0.54199492 9.3264,0.434934195 9.28678261,0.397016855 C9.24716522,0.359099515 9.14462609,0.294416994 8.82069565,0.294416994 Z" id="Path"></path>
                                                    <path d="M22.4164522,13.0257215 C22.4574454,12.881663 22.4283322,12.7275923 22.3372174,12.6064004 L20.5637565,9.38342646 C20.426539,9.10972835 20.2576931,8.85161666 20.0603826,8.6139275 L19.8599652,8.3752713 L20.1396174,8.22583237 C21.477287,7.51432464 22.1251478,6.31881321 22.1251478,4.57238513 C22.1251478,3.20959132 21.7103304,2.14567536 20.8923478,1.40963288 C20.0743652,0.673590395 18.9277913,0.294416994 17.4969043,0.294416994 L11.8852174,0.294416994 C11.5589565,0.294416994 11.4494261,0.36579081 11.4191304,0.397016855 C11.3888348,0.4282429 11.3096,0.54199492 11.3096,0.825259755 L11.3096,12.6153221 C11.3096,12.8985869 11.3771826,13.0034172 11.4168,13.043565 C11.4564174,13.0837128 11.5589565,13.1461649 11.882887,13.1461649 L14.1061217,13.1461649 C14.4277217,13.1461649 14.5302609,13.0770215 14.5582261,13.0480259 C14.5861913,13.0190302 14.6607652,12.9008174 14.6607652,12.6153221 L14.6607652,8.69868391 L15.3855304,8.69868391 C15.7574697,8.68002424 16.1256287,8.7779022 16.4342261,8.97748788 C16.7186808,9.19960405 16.9472712,9.48013187 17.1030609,9.79828677 L18.3661565,12.3900485 C18.4641665,12.6354749 18.646652,12.8415989 18.883513,12.9744216 C19.2155023,13.1050477 19.5738108,13.1629653 19.9322087,13.1439344 L22.0575652,13.1439344 C22.260313,13.1461649 22.3721739,13.1060171 22.4164522,13.0257215 Z M18.2216696,5.6652967 C17.9158795,5.9510597 17.4996466,6.10216617 17.0727652,6.08238744 L14.6677565,6.08238744 L14.6677565,3.06907412 L17.0657739,3.06907412 C17.4903908,3.03184166 17.9105979,3.17543006 18.2145641,3.46162561 C18.5185303,3.74782116 18.6754196,4.14759053 18.6434783,4.55454168 C18.6607307,4.96266268 18.5062712,5.36036116 18.2146783,5.6586054 L18.2216696,5.6652967 Z" id="Shape"></path>
                                                    <path d="M33.3252174,10.3692773 L27.6762435,10.3692773 L27.6762435,8.04070653 L32.1040696,8.04070653 C32.428,8.04070653 32.5398609,7.96933272 32.5701565,7.93810667 C32.6004522,7.90688063 32.679687,7.80205033 32.679687,7.49202032 L32.679687,5.7991226 C32.679687,5.51585777 32.6121043,5.40879704 32.5701565,5.3708797 C32.5282087,5.33296236 32.428,5.26827984 32.1040696,5.26827984 L27.6762435,5.26827984 L27.6762435,3.07130455 L33.1434435,3.07130455 C33.4673739,3.07130455 33.5769043,2.99993073 33.6095304,2.96870469 C33.6421565,2.93747864 33.7167304,2.83264835 33.7167304,2.52261833 L33.7167304,0.827490187 C33.7167304,0.544225352 33.6491478,0.437164627 33.6095304,0.399247287 C33.569913,0.361329947 33.4673739,0.296647426 33.1434435,0.296647426 L24.8983652,0.296647426 C24.5721043,0.296647426 24.4625739,0.368021242 24.4322783,0.399247287 C24.4019826,0.430473332 24.3250783,0.544225352 24.3250783,0.827490187 L24.3250783,12.6175525 C24.3250783,12.9008174 24.3926609,13.0056477 24.4322783,13.0457954 C24.4718957,13.0859432 24.5744348,13.1483953 24.8983652,13.1483953 L33.3252174,13.1483953 C33.6211826,13.1483953 33.730713,13.0837128 33.7726609,13.0457954 C33.8146087,13.0078781 33.8775304,12.9008174 33.8775304,12.6175525 L33.8775304,10.9023505 C33.8775304,10.5878596 33.8006261,10.4919511 33.7773217,10.4696467 C33.6437241,10.3861616 33.4835732,10.3506073 33.3252174,10.3692773 L33.3252174,10.3692773 Z" id="Path"></path>
                                                    <path d="M35.4598957,3.97016855 C35.4569564,4.32000863 35.4976381,4.66893497 35.5810783,5.00954976 C35.6517643,5.29869544 35.7460479,5.58208662 35.8630609,5.85711383 C35.9662547,6.09050204 36.1167473,6.30200554 36.3058435,6.47940429 C36.4903149,6.65897181 36.6856299,6.82803133 36.8907826,6.98571231 C37.1014959,7.13399252 37.331904,7.25475394 37.5759304,7.34481182 C37.8835478,7.46748557 38.1329043,7.567855 38.3309913,7.62138536 C38.6009235,7.69654428 38.8747245,7.75833489 39.1513043,7.8065112 C39.5125217,7.87565458 39.7781913,7.92026322 39.9459826,7.94479797 C40.1137739,7.96933272 40.3841043,8.00948049 40.7499826,8.05854999 C41.3634088,8.11996138 41.9667577,8.25252961 42.5467478,8.45333641 C42.9904769,8.5869741 43.2905158,8.98284325 43.2854957,9.4280351 C43.2854957,10.3202078 42.4861565,10.7662942 40.9084522,10.7662942 C39.6756522,10.7662942 38.8460174,10.3826599 38.4428522,9.62431309 C38.2983652,9.36335257 38.179513,9.29197876 38.1235826,9.27190487 C38.0857078,9.26145783 38.0464771,9.25620121 38.0070609,9.25629185 C37.8727568,9.26171639 37.7403817,9.28886524 37.6155478,9.33658739 L35.7651826,9.97672131 C35.4738783,10.0793212 35.3806609,10.181921 35.3526957,10.233221 C35.3247304,10.2845209 35.2921043,10.3915816 35.3993043,10.6793073 C36.0984348,12.5238744 37.8975304,13.4227384 40.8688348,13.4227384 C42.6003478,13.4227384 44.0289043,13.0547172 45.1125565,12.3320573 C46.1418493,11.684006 46.7427333,10.5684832 46.6972522,9.39011776 C46.7098075,8.812331 46.6004249,8.23805966 46.3756522,7.70168091 C46.2034072,7.28585517 45.9467781,6.90681711 45.6205913,6.58646502 C45.2736184,6.28899893 44.8722809,6.05535393 44.4367304,5.8972616 C44.0092798,5.72267884 43.5662588,5.5853234 43.1130435,5.48686216 C42.7425043,5.41325791 42.2670957,5.33742323 41.6961391,5.26381898 C41.0140479,5.20534288 40.3409868,5.07366405 39.6896348,4.87126299 C39.0231304,4.63483722 38.8833043,4.18875087 38.8833043,3.85641653 C38.8833043,3.29211729 39.2538435,2.61629647 41.0249739,2.61629647 C42.113287,2.61629647 42.8660174,2.99546987 43.2552,3.73151235 C43.432313,4.04154237 43.5441739,4.08838144 43.5558261,4.0928423 C43.5674783,4.09730316 43.6909913,4.12183791 43.9636522,4.00585546 L45.9352,3.1939783 C46.1056188,3.15065437 46.2508144,3.04382004 46.3383652,2.89733087 C46.3727961,2.7595132 46.3484778,2.61424635 46.2707826,2.49362272 C45.8776745,1.68331503 45.2134047,1.02164872 44.3831304,0.613368737 C43.5488348,0.207430155 42.4185739,0.00223043177 41.0249739,0.00223043177 C39.2585043,0.00223043177 37.8672348,0.372482106 36.893113,1.10406373 C35.9524146,1.77606239 35.4166522,2.84746381 35.4598957,3.97016855 L35.4598957,3.97016855 Z" id="Path"></path>
                                                    <path d="M59.137113,0.274343108 L56.8952348,0.274343108 C56.7372281,0.254431837 56.5770969,0.290960042 56.4454609,0.376942969 C56.4151652,0.408169014 56.3405913,0.512999307 56.3405913,0.823029323 L56.3405913,5.24374509 L51.9686957,5.24374509 L51.9686957,0.825259755 C51.9686957,0.510768876 51.8964522,0.403708151 51.8661565,0.379173401 C51.8358609,0.354638652 51.7356522,0.281034403 51.4140522,0.281034403 L49.1908174,0.281034403 C48.866887,0.281034403 48.7550261,0.35240822 48.7247304,0.383634265 C48.6944348,0.414860309 48.6175304,0.519690603 48.6175304,0.829720619 L48.6175304,12.619783 C48.6175304,12.9030478 48.685113,13.0078781 48.7247304,13.0480259 C48.7643478,13.0881736 48.866887,13.1506257 49.1908174,13.1506257 L51.4140522,13.1506257 C51.7356522,13.1506257 51.8381913,13.0814823 51.8661565,13.0524867 C51.8941217,13.0234911 51.9686957,12.9052782 51.9686957,12.619783 L51.9686957,8.02955438 L56.3312696,8.02955438 L56.3312696,12.6220134 C56.3312696,12.9052782 56.3965217,13.012339 56.4384696,13.0502563 C56.4804174,13.0881736 56.5876174,13.1528562 56.885913,13.1528562 L59.1277913,13.1528562 C59.4237565,13.1528562 59.5356174,13.0881736 59.5752348,13.0502563 C59.6148522,13.012339 59.6824348,12.9052782 59.6824348,12.6220134 L59.6824348,0.825259755 C59.6824348,0.512999307 59.6078609,0.408169014 59.5752348,0.379173401 C59.5426087,0.350177788 59.426087,0.274343108 59.137113,0.274343108 Z" id="Path"></path>
                                                    <path d="M75.2730435,1.46539367 C74.413113,0.686972985 73.2292522,0.294416994 71.7610783,0.294416994 L66.319513,0.294416994 C65.9955826,0.294416994 65.8860522,0.36579081 65.8534261,0.397016855 C65.8208,0.4282429 65.7462261,0.54199492 65.7462261,0.825259755 L65.7462261,12.6153221 C65.7462261,12.8985869 65.8138087,13.0034172 65.8534261,13.043565 C65.8930435,13.0837128 65.9955826,13.1461649 66.319513,13.1461649 L68.5450783,13.1461649 C68.8643478,13.1461649 68.966887,13.0770215 68.9971826,13.0480259 C69.0274783,13.0190302 69.0973913,12.9008174 69.0973913,12.6153221 L69.0973913,9.14477026 L71.7913739,9.14477026 C73.2595478,9.14477026 74.4364174,8.75667513 75.2870261,7.99163704 C76.1376348,7.22659894 76.5594435,6.14037867 76.5594435,4.7530501 C76.5594435,3.36572154 76.1213217,2.23043177 75.2730435,1.46539367 Z M72.5930435,5.90618333 C72.248832,6.21404645 71.7888118,6.37502633 71.3182957,6.35226968 L69.0973913,6.35226968 L69.0973913,3.06907412 L71.3113043,3.06907412 C71.780882,3.03603914 72.2424719,3.19880316 72.5774128,3.51552437 C72.9123537,3.83224558 73.0879753,4.27203074 73.0591304,4.72182406 C73.0797062,5.16102879 72.9112441,5.58910248 72.5930435,5.90618333 L72.5930435,5.90618333 Z" id="Shape"></path>
                                                    <path d="M89.5772522,13.0257215 C89.6206308,12.8828022 89.5922182,12.7287068 89.5003478,12.6086308 L87.726887,9.38342646 C87.5891292,9.11001342 87.4203197,8.85195726 87.223513,8.6139275 L87.0230957,8.3752713 L87.3027478,8.22583237 C88.6404174,7.51432464 89.2882783,6.31881321 89.2882783,4.57238513 C89.2882783,3.20959132 88.8734609,2.14567536 88.0554783,1.40963288 C87.2374957,0.673590395 86.0909217,0.294416994 84.6600348,0.294416994 L79.0530087,0.294416994 C78.7267478,0.294416994 78.6172174,0.36579081 78.5869217,0.397016855 C78.5566261,0.4282429 78.4797217,0.54199492 78.4797217,0.825259755 L78.4797217,12.6153221 C78.4797217,12.8985869 78.5473043,13.0034172 78.5869217,13.043565 C78.6265391,13.0837128 78.7290783,13.1461649 79.0530087,13.1461649 L81.2762435,13.1461649 C81.595513,13.1461649 81.7003826,13.0770215 81.7283478,13.0480259 C81.8151408,12.9200258 81.8514904,12.7666348 81.830887,12.6153221 L81.830887,8.69868391 L82.5556522,8.69868391 C82.9275539,8.6803506 83.2956067,8.77820032 83.6043478,8.97748788 C83.888071,9.19973824 84.1158718,9.48027444 84.2708522,9.79828677 L85.5269565,12.3922789 C85.6249665,12.6377053 85.807452,12.8438293 86.044313,12.976652 C86.3755403,13.107095 86.7330485,13.1650119 87.0906783,13.1461649 L89.2160348,13.1461649 C89.4234435,13.1461649 89.5422957,13.1060171 89.5772522,13.0257215 Z M85.3824696,5.6652967 C85.0759629,5.95140925 84.6588669,6.10252252 84.2312348,6.08238744 L81.830887,6.08238744 L81.830887,3.06907412 L84.2265739,3.06907412 C84.6504434,3.03234662 85.0696709,3.17634594 85.372409,3.46265384 C85.675147,3.74896175 85.8305975,4.14845159 85.797287,4.55454168 C85.8173142,4.96143825 85.6662407,5.35906257 85.3778087,5.6586054 L85.3824696,5.6652967 Z" id="Shape"></path>
                                                    <path d="M94.3220174,0.294416994 L91.9915826,0.294416994 C91.7026087,0.294416994 91.6024,0.359099515 91.5721043,0.385864696 C91.5418087,0.412629878 91.4765565,0.510768876 91.4765565,0.787342415 L91.4765565,12.6532394 C91.4765565,12.929813 91.5441391,13.0234911 91.5744348,13.0524867 C91.6047304,13.0814823 91.7026087,13.1461649 91.9915826,13.1461649 L94.3220174,13.1461649 C94.6109913,13.1461649 94.7112,13.0792519 94.7414957,13.0524867 C94.7717913,13.0257215 94.8393739,12.929813 94.8393739,12.6532394 L94.8393739,0.787342415 C94.8393739,0.510768876 94.7694609,0.414860309 94.7391652,0.385864696 C94.7088696,0.356869083 94.6156522,0.294416994 94.3220174,0.294416994 Z" id="Path"></path>
                                                    <path d="M120.690887,0.294416994 L110.952,0.294416994 C110.6304,0.294416994 110.527861,0.361329947 110.499896,0.39032556 C110.47193,0.419321173 110.397357,0.526381898 110.397357,0.836411914 L110.397357,2.53154006 C110.397357,2.84603094 110.46727,2.95086123 110.499896,2.97762641 C110.532522,3.0043916 110.6304,3.07576541 110.952,3.07576541 L114.154017,3.07576541 L114.154017,12.6220134 C114.133414,12.7733261 114.169764,12.9267171 114.256557,13.0547172 C114.286852,13.0837128 114.389391,13.1528562 114.722643,13.1528562 L116.945878,13.1528562 C117.269809,13.1528562 117.379339,13.0792519 117.411965,13.0480259 C117.444591,13.0167998 117.519165,12.9052782 117.519165,12.6220134 L117.519165,3.07576541 L120.702539,3.07576541 C121.0288,3.07576541 121.13833,3.0043916 121.168626,2.97316555 C121.198922,2.94193951 121.275826,2.83710921 121.275826,2.5270792 L121.275826,0.831951051 C121.275826,0.546455784 121.208243,0.441625491 121.168626,0.403708151 C121.129009,0.36579081 121.017148,0.294416994 120.690887,0.294416994 Z" id="Path"></path>
                                                    <path d="M122.58087,3.97016855 C122.577211,4.31991734 122.617109,4.66883749 122.699722,5.00954976 C122.771483,5.29841058 122.865741,5.58172379 122.981704,5.85711383 C123.085751,6.09005599 123.236137,6.30140924 123.424487,6.47940429 C123.60916,6.65958977 123.805291,6.82868132 124.011757,6.98571231 C124.221611,7.13402144 124.451254,7.2547926 124.694574,7.34481182 C125.002191,7.46748557 125.253878,7.567855 125.451965,7.62138536 C125.723235,7.69858719 125.998619,7.76187282 126.276939,7.81097206 C126.638157,7.88011545 126.903826,7.92472408 127.073948,7.94925883 C127.24407,7.97379358 127.509739,8.01394135 127.875617,8.06301085 C128.489232,8.1233372 129.092718,8.25593553 129.672383,8.45779728 C130.116101,8.59187878 130.416643,8.9871646 130.413461,9.43249596 C130.413461,10.3246687 129.611791,10.770755 128.034087,10.770755 C126.801287,10.770755 125.971652,10.3871208 125.568487,9.62877396 C125.424,9.36781344 125.307478,9.29643962 125.249217,9.27636574 C125.211511,9.2651792 125.172162,9.2599067 125.132696,9.26075271 C124.999196,9.26655264 124.867652,9.2936926 124.743513,9.34104826 L122.893148,9.98118218 C122.599513,10.083782 122.506296,10.1863819 122.47833,10.2376818 C122.450365,10.2889818 122.417739,10.3960425 122.524939,10.6837682 C123.22407,12.5283353 125.025496,13.4271993 127.99447,13.4271993 C129.728313,13.4271993 131.154539,13.059178 132.238191,12.3365181 C133.268191,11.6890753 133.869296,10.573142 133.822887,9.39457862 C133.835442,8.81679186 133.72606,8.24252053 133.501287,7.70614177 C133.329042,7.29031603 133.072413,6.91127797 132.746226,6.59092588 C132.399253,6.2934598 131.997916,6.05981479 131.562365,5.90172247 C131.136449,5.72731422 130.694992,5.58995999 130.243339,5.49132302 C129.8728,5.41771877 129.395061,5.34188409 128.824104,5.26827984 C128.142013,5.20980375 127.468952,5.07812491 126.8176,4.87572385 C126.151096,4.63929808 126.01127,4.19321173 126.01127,3.8608774 C126.01127,3.29657816 126.381809,2.62075733 128.152939,2.62075733 C129.243583,2.62075733 129.993983,2.99993073 130.383165,3.73597322 C130.555617,4.03931194 130.665148,4.09061187 130.686122,4.09730316 C130.707096,4.10399446 130.818957,4.12629878 131.091617,4.01031632 L133.063165,3.19843916 C133.233122,3.15405084 133.37746,3.04642746 133.464,2.8995613 C133.4995,2.76178425 133.475115,2.61611857 133.396417,2.49585315 C133.003906,1.68589752 132.3405,1.02427493 131.511096,0.615599169 C130.67447,0.209660586 129.544209,0.00446086354 128.150609,0.00446086354 C126.384139,0.00446086354 124.9952,0.374712538 124.018748,1.10629416 C123.077623,1.77737461 122.540293,2.84759465 122.58087,3.97016855 L122.58087,3.97016855 Z" id="Path"></path>
                                                    <path d="M108.078574,0.294416994 L106.069739,0.294416994 C105.75047,0.294416994 105.64793,0.361329947 105.619965,0.39032556 C105.592,0.419321173 105.515096,0.526381898 105.515096,0.836411914 L105.515096,7.49871161 L100.854226,0.562068806 C100.720299,0.376231024 100.489328,0.277313341 100.255304,0.305569153 L97.9248696,0.305569153 C97.5986087,0.305569153 97.4890783,0.376942969 97.4587826,0.408169014 C97.428487,0.439395059 97.3492522,0.553147079 97.3492522,0.836411914 L97.3492522,12.6264743 C97.3492522,12.9097391 97.4168348,13.0145694 97.4587826,13.0547172 C97.5007304,13.0948649 97.5986087,13.157317 97.9248696,13.157317 L99.9127304,13.157317 C100.236661,13.157317 100.348522,13.0837128 100.378817,13.0547172 C100.409113,13.0257215 100.486017,12.9097391 100.486017,12.6264743 L100.486017,9.54401755 C100.486017,9.20945278 100.486017,8.88827061 100.462713,8.57824059 L100.3928,5.6162272 L101.940209,7.97602401 C102.033426,8.12769337 102.128974,8.2771323 102.226852,8.42211037 L105.256417,12.8829739 C105.383314,13.0671311 105.60775,13.1672008 105.836696,13.141704 L108.05993,13.141704 C108.355896,13.141704 108.465426,13.0770215 108.507374,13.0391041 C108.549322,13.0011868 108.614574,12.8941261 108.614574,12.6108612 L108.614574,0.825259755 C108.614574,0.54199492 108.546991,0.434934195 108.507374,0.397016855 C108.467757,0.359099515 108.365217,0.294416994 108.078574,0.294416994 Z" id="Path"></path>
                                                </g>
                                            </g>
                                            <g id="Crown" transform="translate(47.605263, 0.569112)">
                                                <path d="M2.16942326,15.1210635 C2.14266361,15.0134289 2.17044884,14.8994972 2.24373861,14.8163379 C2.31702837,14.7331786 2.4264545,14.6914214 2.53641349,14.7046526 C4.23128886,14.8959161 5.77527466,15.7703194 6.81254649,17.1263491 C6.88919634,17.2217281 7.52794516,18.1476025 8.6939521,19.7713721 L8.6939521,19.7713721 C8.7639198,19.8681295 8.77756728,19.9947359 8.72983132,20.1042204 C8.68209536,20.2137049 8.58009784,20.2897332 8.4616798,20.3040987 C6.62672865,20.5530147 5.22148125,20.4878778 4.19251497,20.5995411 C4.01195462,20.6347935 3.83413764,20.5271333 3.781393,20.3506251 C3.52357075,19.2665612 2.46905452,16.3400538 2.16942326,15.1210635 Z" id="Path" fill="#FFFFFF" fill-rule="nonzero"></path>
                                                <path d="M36.438878,15.1210635 C36.4656377,15.0134289 36.4378524,14.8994972 36.3645627,14.8163379 C36.2912729,14.7331786 36.1818468,14.6914214 36.0718878,14.7046526 C34.3761764,14.895309 32.8312457,15.7697725 31.7934321,17.1263491 C31.7191049,17.2217281 31.0803561,18.1476025 29.9120265,19.7713721 L29.9120265,19.7713721 C29.8420588,19.8681295 29.8284113,19.9947359 29.8761473,20.1042204 C29.9238832,20.2137049 30.0258807,20.2897332 30.1442988,20.3040987 C31.9792499,20.5530147 33.3961109,20.4878778 34.4134636,20.5995411 C34.594024,20.6347935 34.7718409,20.5271333 34.8245856,20.3506251 C35.0731169,19.2665612 36.1392468,16.3400538 36.438878,15.1210635 Z" id="Path" fill="#FFFFFF" fill-rule="nonzero"></path>
                                                <path d="M38.417838,7.83038455 C38.193503,7.56763354 37.8640932,7.41844512 37.5189442,7.423279 L33.5052789,7.15109986 C33.1268562,7.06890204 32.7512891,7.30116851 32.6551623,7.6768476 C32.5185405,8.01791421 32.2531315,8.29125713 31.9165364,8.43755341 C31.2894012,8.72601677 30.3742483,8.65157462 29.2732777,8.21887957 C28.323284,7.84899509 27.7309896,7.3697737 27.5614308,6.83472068 C27.4688304,6.50499261 27.5105966,6.15194036 27.677567,5.85301472 C27.8114057,5.66199287 27.8509175,5.42025191 27.7848786,5.19645958 C27.7188397,4.97266725 27.5544663,4.79127708 27.3384494,4.70381389 L21.0903246,1.09569552 L19.7431453,0.341968666 C19.4736838,0.195530284 19.1485539,0.195530284 18.8790923,0.341968666 L17.0604003,1.36322203 L17.0604003,1.36322203 L11.27682,4.69683494 C11.0605668,4.78406958 10.8960975,4.96567052 10.8304373,5.1897142 C10.7647771,5.41375787 10.8051547,5.655579 10.9400252,5.84603577 C11.1057229,6.14543989 11.1466288,6.49827717 11.0538386,6.82774173 C10.8842799,7.36279475 10.2919855,7.84201614 9.34431453,8.21190062 C8.24102112,8.64459566 7.32586826,8.71903782 6.69873306,8.43057446 C6.36353338,8.28424161 6.09739337,8.01435784 5.95546171,7.6768476 C5.86039576,7.3025924 5.4870665,7.07044135 5.10999055,7.15109986 L1.0916798,7.423279 C0.747339381,7.41913878 0.418921317,7.5682634 0.19510873,7.83038455 C-0.0557453514,8.17700586 0.0232272298,8.58643773 0.118458872,8.94003798 L0.898893791,11.9782086 C0.97554365,12.3271562 1.22872045,12.7319354 1.9812827,12.7040196 C4.47207846,12.6769406 6.83241062,13.8171954 8.36180271,15.7863903 C8.36180271,15.7863903 9.03306965,16.6285172 10.2850173,18.3709289 C11.536965,20.1133407 13.0304759,20.3296882 13.4346297,20.4204146 C13.8803928,20.4689142 14.3290616,20.4852406 14.7771636,20.4692673 L14.7771636,11.6850926 L20.0961992,11.6850926 L22.7348125,11.6850926 L22.7348125,11.6850926 C23.1342346,11.6769379 23.5306082,11.7563352 23.896174,11.9177243 C24.2163373,12.067055 24.4995181,12.285529 24.7253861,12.5574616 C25.160491,13.0996151 25.3937068,13.7764939 25.3850394,14.4720209 C25.3883488,14.9932103 25.2605392,15.50684 25.0134037,15.9655167 C24.7646365,16.4322417 24.3719427,16.8059598 23.8938512,17.0309701 C23.5283767,17.1926481 23.1319386,17.2720584 22.7324898,17.2636018 L21.1948471,17.2636018 L21.1948471,20.4715936 L22.0867728,20.4715936 L23.9240466,20.4715936 C25.438462,20.4715936 27.157277,20.0249407 28.3372203,18.3779079 C29.589168,16.6354961 30.2534668,15.8003482 30.2604349,15.7933692 C31.7890659,13.8257715 34.1472207,12.6857385 36.6363095,12.7109986 C37.3888717,12.7389144 37.6397258,12.3341351 37.7163757,11.9851875 L38.4991333,8.94701693 C38.5873968,8.58643773 38.6663694,8.17700586 38.417838,7.83038455 Z M18.7652789,10.6056813 L14.7864545,10.6056813 C14.487245,10.5690903 14.1877402,10.6714227 13.9732425,10.8835329 C13.7587449,11.0956432 13.6527637,11.3942835 13.6854838,11.6943978 L13.6854838,19.4526666 C13.1559029,19.3572875 12.1339048,19.1060453 11.151393,17.7404969 C9.88086354,15.9724956 9.22353293,15.146653 9.2003057,15.1210635 C6.66853766,11.8363032 3.01953987,11.6315873 2.12529152,11.6315873 C1.99754176,11.6315873 1.92553735,11.6315873 1.9208919,11.6315873 L1.16136149,8.66785884 C1.1427797,8.59806931 1.12884337,8.5422377 1.1218752,8.50036398 L1.16136149,8.50036398 L5.02869524,8.23981643 C5.27879283,8.75043023 5.69490835,9.16062656 6.20863851,9.40297515 C7.1377277,9.84264915 8.3107028,9.78449122 9.72988654,9.22850135 C11.0097069,8.72601677 11.7994327,8.03277417 12.073514,7.16738408 C12.239053,6.63085661 12.2052281,6.05246536 11.9782824,5.53896186 L18.3309297,1.86105396 C18.4703828,1.78134136 18.615567,1.71213607 18.7652789,1.65401171 L18.7652789,10.6056813 Z M37.453908,8.66785884 L36.699023,11.6315873 C36.699023,11.6315873 36.6200504,11.6315873 36.4923007,11.6315873 C35.5934069,11.6315873 31.9513772,11.8456085 29.4172865,15.1210635 C29.396382,15.146653 28.7855058,16.0073904 27.4661992,17.7404969 C26.6847229,18.715387 25.5317523,19.3184913 24.2863914,19.4038139 C23.3921431,19.4666245 22.2679452,19.4503402 22.2679452,19.4503402 L22.2679452,18.8873714 L22.2795588,18.1894762 L22.5118311,18.1894762 C23.6731926,18.1894762 24.6231863,17.8521602 25.3246486,17.191486 C26.0261109,16.5308118 26.3931012,15.586327 26.3931012,14.4231682 C26.3931012,13.2600095 26.0284337,12.3015667 25.3107123,11.6315873 C24.5929909,10.9616078 23.6476426,10.6219655 22.4839584,10.6219655 L19.8476678,10.6219655 L19.8476678,1.66331698 C19.9966269,1.72145201 20.1410381,1.79065895 20.2796943,1.87035923 L26.6346644,5.53430923 C26.4069523,6.04752768 26.372302,6.62592534 26.53711,7.16273144 C26.813514,8.02812154 27.6009171,8.72136414 28.8807375,9.22384871 C30.2999212,9.77983858 31.4845099,9.83799652 32.4019855,9.39832252 C32.9162619,9.15594211 33.3331104,8.74583049 33.5842515,8.23516379 L37.4492625,8.49571135 L37.4933943,8.49571135 C37.4841034,8.5422377 37.4724898,8.60737458 37.453908,8.66785884 Z" id="Shape" fill="#FFFFFF" fill-rule="nonzero"></path>
                                                <path d="M23.1319981,15.0931476 C23.2586735,14.9252048 23.3257083,14.7196953 23.3224614,14.509242 C23.3247053,14.3475359 23.2872155,14.1877578 23.2132934,14.0439785 C23.1475005,13.9093349 23.0388068,13.800473 22.9043713,13.7345783 C22.8036048,13.686574 22.6930777,13.6626823 22.5815128,13.6647887 L21.187879,13.6647887 L21.187879,15.3536952 L22.5815128,15.3536952 C22.6930777,15.3558016 22.8036048,15.3319099 22.9043713,15.2839057 C22.9938667,15.2386711 23.071756,15.1733976 23.1319981,15.0931476 L23.1319981,15.0931476 Z" id="Path" fill="#FFFFFF" fill-rule="nonzero"></path>
                                                <polygon id="Path" fill="#FFFFFF" fill-rule="nonzero" points="16.7538008 15.3234531 18.6816609 15.3234531 18.6816609 17.2217281 16.7538008 17.2217281 16.7538008 20.466941 19.292537 20.466941 19.292537 13.6717677 16.7538008 13.6717677"></polygon>
                                            </g>
                                        </g>
                                    </g>
                                </g>
                            </g>
                        </g>
                    </g>
                </g>
            </g>
        </g>
    </g>
</svg>