<?xml version="1.0" encoding="UTF-8"?>
<svg width="33px" height="33px" viewBox="0 0 33 33" version="1.1" xmlns="http://www.w3.org/2000/svg" xmlns:xlink="http://www.w3.org/1999/xlink">
    <!-- Generator: Sketch 62 (91390) - https://sketch.com -->
    <title>Search icon</title>
    <desc>Created with Sketch.</desc>
    <defs>
        <path d="M4.16666667,9.16666667 C4.16666667,6.40916667 6.40916667,4.16666667 9.16666667,4.16666667 C11.9241667,4.16666667 14.1666667,6.40916667 14.1666667,9.16666667 C14.1666667,11.9241667 11.9241667,14.1666667 9.16666667,14.1666667 C6.40916667,14.1666667 4.16666667,11.9241667 4.16666667,9.16666667 M17.2558333,16.0775 L14.4266667,13.2475 C15.3041667,12.1191667 15.8333333,10.705 15.8333333,9.16666667 C15.8333333,5.49083333 12.8425,2.5 9.16666667,2.5 C5.49083333,2.5 2.5,5.49083333 2.5,9.16666667 C2.5,12.8425 5.49083333,15.8333333 9.16666667,15.8333333 C10.705,15.8333333 12.1191667,15.3041667 13.2475,14.4266667 L16.0775,17.2558333 C16.24,17.4183333 16.4533333,17.5 16.6666667,17.5 C16.88,17.5 17.0933333,17.4183333 17.2558333,17.2558333 C17.5816667,16.93 17.5816667,16.4033333 17.2558333,16.0775" id="path-1"></path>
    </defs>
    <g id="Symbols" stroke="none" stroke-width="1" fill="none" fill-rule="evenodd">
        <g id="Header" transform="translate(-1176.000000, -19.000000)">
            <g id="Search-bar">
                <g>
                    <g transform="translate(969.000000, 19.000000)">
                        <g id="Search-icon">
                            <g>
                                <g transform="translate(207.000000, 0.000000)">
                                    <circle id="Oval" fill="#F6F6F6" cx="16.5" cy="16.5" r="16.5"></circle>
                                    <g id="search" transform="translate(7.000000, 6.000000)">
                                        <mask id="mask-2" fill="white">
                                            <use xlink:href="#path-1"></use>
                                        </mask>
                                        <use id="🎨-Icon-Сolor" fill="#0D1C2E" fill-rule="nonzero" xlink:href="#path-1"></use>
                                    </g>
                                </g>
                            </g>
                        </g>
                    </g>
                </g>
            </g>
        </g>
    </g>
</svg>